<?xml version="1.0" encoding="UTF-8"?><svg xmlns="http://www.w3.org/2000/svg" viewBox="0 0 2000 2000"><defs><style>.c{fill:#cf0;}.c,.d{stroke-width:0px;}.d{fill:#303030;}</style></defs><g id="a"><rect class="d" x="-15.89" y="-11.67" width="2029.33" height="2021.33"/></g><g id="b"><path class="c" d="M480.67,970.25c-41.93,0-78.44,22.99-109.55,116.31l-71.68-31.11c47.34-127.13,114.96-169.05,183.93-169.05,106.84,0,163.64,113.6,240.73,113.6,41.93,0,78.44-21.64,109.55-116.31l71.68,32.46c-47.34,125.78-114.96,167.7-183.93,167.7-106.84,0-163.64-113.6-240.73-113.6Z"/><path class="c" d="M1175.81,1200.16c67.62,50.04,150.12,91.97,251.55,91.97s162.29-47.34,162.29-116.31c0-167.7-428.72-137.95-428.72-373.27,0-127.13,110.9-206.92,266.43-206.92,119.01,0,189.34,44.63,250.2,104.14l-59.51,66.27c-60.86-48.69-109.55-77.09-198.81-77.09s-147.42,43.28-147.42,110.9c0,148.77,428.72,120.37,428.72,367.86,0,129.83-116.31,217.74-286.72,217.74-110.9,0-221.8-48.69-290.77-106.84l52.74-78.44ZM1381.38,419.81h81.15v217.74h-81.15v-217.74ZM1462.53,1346.22v233.97h-81.15v-233.97h81.15Z"/></g></svg>